<?xml version="1.0" encoding="utf-8"?><!-- Uploaded to: SVG Repo, www.svgrepo.com, Generator: SVG Repo Mixer Tools -->
<svg fill="#000000" width="800px" height="800px" viewBox="0 0 24 24" id="schedule-left" data-name="Flat Color" xmlns="http://www.w3.org/2000/svg" class="icon flat-color"><path id="primary" d="M4,3H20a2,2,0,0,1,2,2V20a2,2,0,0,1-2,2H9a1,1,0,0,1-.71-.29l-6-6A1,1,0,0,1,2,15V5A2,2,0,0,1,4,3Z" style="fill: rgb(0, 0, 0);"></path><path id="secondary" d="M2,14.86l6.93,1A1,1,0,0,1,9.79,17L8.81,22a1,1,0,0,1-.52-.27l-6-6A1,1,0,0,1,2,14.86ZM2,5V8H22V5a2,2,0,0,0-2-2H4A2,2,0,0,0,2,5Z" style="fill: rgb(44, 169, 188);"></path><path id="primary-2" data-name="primary" d="M6,5V3A1,1,0,0,1,8,3V5A1,1,0,0,1,6,5Zm6,1a1,1,0,0,0,1-1V3a1,1,0,0,0-2,0V5A1,1,0,0,0,12,6Zm5,0a1,1,0,0,0,1-1V3a1,1,0,0,0-2,0V5A1,1,0,0,0,17,6Z" style="fill: rgb(0, 0, 0);"></path></svg>